# xmcd
#
# Track frame offsets:
#        150
#        27031
#        46155
#        70602
#        86739
#        107360
#        124204
#        144365
#        164853
#        181726
#        200008
#        232781
#
# Disc length: 3462 seconds
#
# Revision: 0
# Processed by: cddbd v1.5.1PL0 Copyright (c) Steve Scherf et al.
# Submitted via: ExactAudioCopy v0.95a5
#
DISCID=970d840c
DTITLE=Mr.Big - The Perfect Demonium
DYEAR=1999
DGENRE=Hard Rock
TTITLE0=Colorado Bulldog
TTITLE1=Price You Gotta Pay
TTITLE2=Temper A Mental
TTITLE3=Green-Tinted Sixties Mind
TTITLE4=Take A WALK
TTITLE5=Just Take My Heart
TTITLE6=Mr.Gone
TTITLE7=Wind Me Up
TTITLE8=Wild World
TTITLE9=Nothing But Love
TTITLE10=Little Too Loose
TTITLE11=Alive And Kickin'
EXTD=
EXTT0=
EXTT1=
EXTT2=
EXTT3=
EXTT4=
EXTT5=
EXTT6=
EXTT7=
EXTT8=
EXTT9=
EXTT10=
EXTT11=
PLAYORDER=
